<svg xmlns="http://www.w3.org/2000/svg" height="500" width="500"><path d="M388.409 254.614c-40.385 13.654-52.756 46.667-62.692 80.128 0 19.23-13.333 35.449-38.077 46.41-11.218 5.064-23.333 7.757-35.577 7.885-15.32-.064-30.384-4.423-43.333-12.564a63.234 63.234 0 0 1-30.577-55.962c-10.577-29.038-28.654-57.564-58.013-65.897-33.525-9.551-55.192-32.949-68.91-55.897v32.436c-.384 61.538-.833 49.358.705 95.384.577 40 16.347 78.269 44.103 107.05 40.833 42.693 97.436 66.667 156.538 66.411 21.923 0 43.782-3.205 64.808-9.423C396.87 467.113 452.51 399.87 452.575 327.05V206.024c-15.448 22.82-38.012 39.936-64.166 48.59z" fill="#00a5af"/><path fill="#ee4023" d="M78.537 0C67.96 0 53.923 2.5 51.551 23.91v141.858c10.705 25.705 32.308 59.935 71.924 71.281 24.871 7.116 42.178 25.963 54.486 48.014V72.436C177.961 13.333 104.114 0 78.537 0zm347.051 0c-25.769 0-99.422 13.27-99.422 72.436 0 0-.449 133.78-.449 144.998v76.924c12.372-25.898 31.026-49.294 59.36-57.371 34.679-9.936 55.575-37.373 67.498-61.284V23.91C450.203 2.5 436.037 0 425.588 0z"/></svg>